<svg xmlns="http://www.w3.org/2000/svg" viewBox="0 0 512 512" role="img" aria-label="Habit Day Friends">
  <rect width="512" height="512" rx="112" fill="#3d3934"/>
  <g fill="#f5f0e6">
    <path
      fill="none"
      stroke="#f5f0e6"
      stroke-width="18"
      stroke-linecap="round"
      d="M216 158 L192 88 M296 158 L320 88"
    />
    <path
      d="M118 178 H394 a30 30 0 0 1 30 30 v118 a26 26 0 0 1 -26 26 H144 a26 26 0 0 1 -26 -26 V208 a30 30 0 0 1 30 -30 Z"
    />
    <rect x="142" y="202" width="228" height="108" rx="12" fill="#f8e8b0"/>
    <circle cx="368" cy="248" r="10"/>
    <circle cx="368" cy="286" r="10"/>
    <rect x="178" y="326" width="48" height="16" rx="5"/>
    <rect x="286" y="326" width="48" height="16" rx="5"/>
    <rect x="200" y="342" width="112" height="10" rx="5"/>
  </g>
  <circle cx="366" cy="150" r="36" fill="#f0b85f"/>
</svg>
